HIERARCHY
ROOT Hips
{
	OFFSET 0.000000 97.167313 0.000000
	CHANNELS 6 Xposition Yposition Zposition Xrotation Yrotation Zrotation
	JOINT Spine
	{
		OFFSET 0.000000 13.784798 0.064400
		CHANNELS 3 Xrotation Yrotation Zrotation
		JOINT Spine1
		{
			OFFSET 0.000000 12.037903 0.404700
			CHANNELS 3 Xrotation Yrotation Zrotation
			JOINT Spine2
			{
				OFFSET 0.000000 17.795601 0.420200
				CHANNELS 3 Xrotation Yrotation Zrotation
				JOINT Neck
				{
					OFFSET 0.000000 39.131302 11.954600
					CHANNELS 3 Xrotation Yrotation Zrotation
					JOINT Head
					{
						OFFSET 0.000000 14.456192 15.627699
						CHANNELS 3 Xrotation Yrotation Zrotation
						JOINT HeadTop_End
						{
							OFFSET 0.000000 15.703506 7.603401
							CHANNELS 3 Xrotation Yrotation Zrotation
							End Site
							{
								OFFSET 0.000000 17.447403 0.000000
							}
						}
					}
				}
				JOINT LeftShoulder
				{
					OFFSET 17.399500 24.608795 1.168800
					CHANNELS 3 Xrotation Yrotation Zrotation
					JOINT LeftArm
					{
						OFFSET 18.980635 5.765305 1.818600
						CHANNELS 3 Xrotation Yrotation Zrotation
						JOINT LeftForeArm
						{
							OFFSET 49.290169 0.000000 0.000000
							CHANNELS 3 Xrotation Yrotation Zrotation
							JOINT LeftHand
							{
								OFFSET 31.562012 0.000000 0.000000
								CHANNELS 3 Xrotation Yrotation Zrotation
								JOINT LeftHandThumb1
								{
									OFFSET 6.133995 -4.388519 7.076070
									CHANNELS 3 Xrotation Yrotation Zrotation
									JOINT LeftHandThumb2
									{
										OFFSET 6.037666 -3.485840 3.485847
										CHANNELS 3 Xrotation Yrotation Zrotation
										JOINT LeftHandThumb3
										{
											OFFSET 6.496506 -3.750763 3.750761
											CHANNELS 3 Xrotation Yrotation Zrotation
											JOINT LeftHandThumb4
											{
												OFFSET 5.616882 -3.242905 3.242910
												CHANNELS 3 Xrotation Yrotation Zrotation
												End Site
												{
													OFFSET -1.254608 7.132141 0.375429
												}
											}
										}
									}
								}
								JOINT LeftHandPinky1
								{
									OFFSET 18.920792 -0.453171 -11.426712
									CHANNELS 3 Xrotation Yrotation Zrotation
									JOINT LeftHandPinky2
									{
										OFFSET 4.919586 0.000000 0.000000
										CHANNELS 3 Xrotation Yrotation Zrotation
										JOINT LeftHandPinky3
										{
											OFFSET 5.233047 0.000000 0.000000
											CHANNELS 3 Xrotation Yrotation Zrotation
											JOINT LeftHandPinky4
											{
												OFFSET 5.571716 0.000000 0.000000
												CHANNELS 3 Xrotation Yrotation Zrotation
												End Site
												{
													OFFSET -3.459808 4.342407 -0.466164
												}
											}
										}
									}
								}
								JOINT LeftHandRing1
								{
									OFFSET 22.726120 -0.094986 -6.500475
									CHANNELS 3 Xrotation Yrotation Zrotation
									JOINT LeftHandRing2
									{
										OFFSET 6.408615 0.000000 0.000000
										CHANNELS 3 Xrotation Yrotation Zrotation
										JOINT LeftHandRing3
										{
											OFFSET 6.150223 0.000000 0.000000
											CHANNELS 3 Xrotation Yrotation Zrotation
											JOINT LeftHandRing4
											{
												OFFSET 6.145386 0.000000 0.000000
												CHANNELS 3 Xrotation Yrotation Zrotation
												End Site
												{
													OFFSET -3.671402 4.923981 -0.202372
												}
											}
										}
									}
								}
								JOINT LeftHandMiddle1
								{
									OFFSET 23.373947 0.000000 0.000001
									CHANNELS 3 Xrotation Yrotation Zrotation
									JOINT LeftHandMiddle2
									{
										OFFSET 6.996567 0.000000 0.000000
										CHANNELS 3 Xrotation Yrotation Zrotation
										JOINT LeftHandMiddle3
										{
											OFFSET 7.015945 0.000000 0.000000
											CHANNELS 3 Xrotation Yrotation Zrotation
											JOINT LeftHandMiddle4
											{
												OFFSET 7.721573 0.000000 0.000000
												CHANNELS 3 Xrotation Yrotation Zrotation
												End Site
												{
													OFFSET -4.651108 6.158463 0.251582
												}
											}
										}
									}
								}
								JOINT LeftHandIndex1
								{
									OFFSET 21.310577 -0.490082 6.209344
									CHANNELS 3 Xrotation Yrotation Zrotation
									JOINT LeftHandIndex2
									{
										OFFSET 7.536453 0.000000 0.000000
										CHANNELS 3 Xrotation Yrotation Zrotation
										JOINT LeftHandIndex3
										{
											OFFSET 7.512344 0.000000 0.000000
											CHANNELS 3 Xrotation Yrotation Zrotation
											JOINT LeftHandIndex4
											{
												OFFSET 10.212402 0.000000 0.000001
												CHANNELS 3 Xrotation Yrotation Zrotation
												End Site
												{
													OFFSET -5.180801 8.690506 1.388433
												}
											}
										}
									}
								}
							}
						}
					}
				}
				JOINT RightShoulder
				{
					OFFSET -17.399500 24.608795 1.168800
					CHANNELS 3 Xrotation Yrotation Zrotation
					JOINT RightArm
					{
						OFFSET -18.980635 5.765305 1.818600
						CHANNELS 3 Xrotation Yrotation Zrotation
						JOINT RightForeArm
						{
							OFFSET -49.290169 0.000000 0.000000
							CHANNELS 3 Xrotation Yrotation Zrotation
							JOINT RightHand
							{
								OFFSET -31.562012 0.000000 0.000000
								CHANNELS 3 Xrotation Yrotation Zrotation
								JOINT RightHandThumb1
								{
									OFFSET -6.133995 -4.388519 7.076070
									CHANNELS 3 Xrotation Yrotation Zrotation
									JOINT RightHandThumb2
									{
										OFFSET -6.037666 -3.485840 3.485847
										CHANNELS 3 Xrotation Yrotation Zrotation
										JOINT RightHandThumb3
										{
											OFFSET -6.496506 -3.750763 3.750761
											CHANNELS 3 Xrotation Yrotation Zrotation
											JOINT RightHandThumb4
											{
												OFFSET -5.616882 -3.242905 3.242910
												CHANNELS 3 Xrotation Yrotation Zrotation
												End Site
												{
													OFFSET 1.254608 7.132141 0.375429
												}
											}
										}
									}
								}
								JOINT RightHandIndex1
								{
									OFFSET -21.310577 -0.490082 6.209344
									CHANNELS 3 Xrotation Yrotation Zrotation
									JOINT RightHandIndex2
									{
										OFFSET -7.536453 0.000000 0.000000
										CHANNELS 3 Xrotation Yrotation Zrotation
										JOINT RightHandIndex3
										{
											OFFSET -7.512344 0.000000 0.000000
											CHANNELS 3 Xrotation Yrotation Zrotation
											JOINT RightHandIndex4
											{
												OFFSET -10.212402 0.000000 0.000001
												CHANNELS 3 Xrotation Yrotation Zrotation
												End Site
												{
													OFFSET 5.180801 8.690506 1.388433
												}
											}
										}
									}
								}
								JOINT RightHandMiddle1
								{
									OFFSET -23.373947 0.000000 0.000001
									CHANNELS 3 Xrotation Yrotation Zrotation
									JOINT RightHandMiddle2
									{
										OFFSET -6.996567 0.000000 0.000000
										CHANNELS 3 Xrotation Yrotation Zrotation
										JOINT RightHandMiddle3
										{
											OFFSET -7.015945 0.000000 0.000000
											CHANNELS 3 Xrotation Yrotation Zrotation
											JOINT RightHandMiddle4
											{
												OFFSET -7.721573 0.000000 0.000000
												CHANNELS 3 Xrotation Yrotation Zrotation
												End Site
												{
													OFFSET 4.651108 6.158463 0.251582
												}
											}
										}
									}
								}
								JOINT RightHandRing1
								{
									OFFSET -22.726120 -0.094986 -6.500475
									CHANNELS 3 Xrotation Yrotation Zrotation
									JOINT RightHandRing2
									{
										OFFSET -6.408615 0.000000 0.000000
										CHANNELS 3 Xrotation Yrotation Zrotation
										JOINT RightHandRing3
										{
											OFFSET -6.150223 0.000000 0.000000
											CHANNELS 3 Xrotation Yrotation Zrotation
											JOINT RightHandRing4
											{
												OFFSET -6.145386 0.000000 0.000000
												CHANNELS 3 Xrotation Yrotation Zrotation
												End Site
												{
													OFFSET 3.671402 4.923981 -0.202372
												}
											}
										}
									}
								}
								JOINT RightHandPinky1
								{
									OFFSET -18.920792 -0.453171 -11.426712
									CHANNELS 3 Xrotation Yrotation Zrotation
									JOINT RightHandPinky2
									{
										OFFSET -4.919586 0.000000 0.000000
										CHANNELS 3 Xrotation Yrotation Zrotation
										JOINT RightHandPinky3
										{
											OFFSET -5.233047 0.000000 0.000000
											CHANNELS 3 Xrotation Yrotation Zrotation
											JOINT RightHandPinky4
											{
												OFFSET -5.571716 0.000000 0.000000
												CHANNELS 3 Xrotation Yrotation Zrotation
												End Site
												{
													OFFSET 3.459808 4.342407 -0.466164
												}
											}
										}
									}
								}
							}
						}
					}
				}
			}
		}
	}
	JOINT LeftUpLeg
	{
		OFFSET 19.899099 -7.885101 -3.429500
		CHANNELS 3 Xrotation Yrotation Zrotation
		JOINT LeftLeg
		{
			OFFSET 1.745560 -36.997807 10.304700
			CHANNELS 3 Xrotation Yrotation Zrotation
			JOINT LeftFoot
			{
				OFFSET -1.745558 -29.803308 -13.615400
				CHANNELS 3 Xrotation Yrotation Zrotation
				JOINT LeftToeBase
				{
					OFFSET 1.181900 -18.539904 15.226099
					CHANNELS 3 Xrotation Yrotation Zrotation
					JOINT LeftToe_End
					{
						OFFSET -0.863701 1.402801 16.534700
						CHANNELS 3 Xrotation Yrotation Zrotation
						End Site
						{
							OFFSET 0.000000 16.616566 0.000000
						}
					}
				}
			}
		}
	}
	JOINT RightUpLeg
	{
		OFFSET -19.899099 -7.885101 -3.429500
		CHANNELS 3 Xrotation Yrotation Zrotation
		JOINT RightLeg
		{
			OFFSET -1.745560 -36.997807 10.304700
			CHANNELS 3 Xrotation Yrotation Zrotation
			JOINT RightFoot
			{
				OFFSET 1.745558 -29.803308 -13.615400
				CHANNELS 3 Xrotation Yrotation Zrotation
				JOINT RightToeBase
				{
					OFFSET -1.181900 -18.539904 15.226099
					CHANNELS 3 Xrotation Yrotation Zrotation
					JOINT RightToe_End
					{
						OFFSET 0.863701 1.402801 16.534700
						CHANNELS 3 Xrotation Yrotation Zrotation
						End Site
						{
							OFFSET 0.000000 16.616566 0.000000
						}
					}
				}
			}
		}
	}
}
MOTION
Frames: 4
Frame Time: 0.033333
-2.207787 77.579384 1.835500 9.030182 -35.442217 2.794240 4.154701 4.272007 3.957110 2.230886 1.589075 0.860510 2.196369 1.665542 0.808229 -1.935444 3.695287 -0.661194 5.162821 18.690251 -7.403653 0.000001 -0.000000 0.000000 8.613374 -11.681976 -2.879730 -49.485871 -1.994526 -44.042969 -0.000087 -106.004789 -0.000097 14.693228 1.385408 4.493968 -10.355876 -18.164519 -0.612244 10.166252 44.439185 3.473514 -4.021230 34.356306 21.444154 0.000003 0.000003 0.000001 14.702274 10.907145 -74.390302 5.247204 5.819905 -84.066030 1.122273 3.449734 -36.032885 -0.000001 0.000001 -0.000000 6.551727 9.294147 -62.102785 5.321224 5.827099 -84.795405 0.629970 2.644677 -26.791736 -0.000000 0.000002 0.000007 2.431936 7.055170 -53.394072 4.432913 5.677182 -75.949859 0.393627 2.113009 -21.102585 -0.000001 -0.000001 0.000001 -1.623600 2.464335 -39.970100 4.432932 5.677173 -75.949846 0.393621 2.113004 -21.102571 0.000004 0.000005 0.000002 4.720335 14.118462 -1.054177 -49.136176 29.769222 70.987625 0.000017 111.725441 0.000001 2.246865 10.553225 0.371485 -11.269584 20.282838 1.210515 10.083131 -46.337714 -3.955814 -2.729954 -40.589731 -21.861270 0.000002 0.000000 0.000002 -1.909769 -1.536819 39.260043 3.529768 -4.518943 75.975698 0.314029 -1.682771 21.139476 0.000001 -0.000003 -0.000001 1.887741 -5.985905 52.719823 3.529763 -4.518933 75.975712 0.314024 -1.682784 21.139473 -0.000002 0.000000 -0.000002 5.826243 -8.180346 61.423106 4.235979 -4.638112 84.805309 0.502513 -2.106122 26.835952 -0.000001 -0.000000 -0.000003 13.716896 -9.803630 73.678910 4.177131 -4.632415 84.077334 0.894954 -2.746960 36.085139 0.000003 0.000001 -0.000001 -51.511900 0.307453 26.700053 41.106677 -7.226061 -3.293556 3.580208 1.759770 -13.548864 -0.000375 -0.000010 -0.000003 -0.000000 -0.000002 -0.000000 -6.867596 -12.201613 -26.713642 38.071655 -0.120929 0.472310 -18.986845 -10.175880 28.264282 -15.850427 0.000010 -0.000008 0.000000 0.000002 -0.000000 
-2.237920 77.419609 2.121066 8.495432 -34.545082 2.082898 4.064426 4.541196 3.715468 2.177920 1.746119 0.712411 2.142096 1.819401 0.659596 -1.764645 3.519040 -0.706545 4.855856 17.650281 -5.994593 0.000001 0.000001 -0.000000 8.657142 -11.190946 -3.115246 -48.839285 -5.405784 -44.692154 0.000056 -105.058411 0.000014 14.903157 1.728866 4.338170 -10.355879 -18.164521 -0.612240 10.166246 44.439191 3.473511 -4.021234 34.356306 21.444158 0.000003 0.000001 0.000003 14.702272 10.907143 -74.390302 5.247204 5.819912 -84.066037 1.122278 3.449728 -36.032888 0.000001 0.000004 -0.000002 6.551726 9.294144 -62.102778 5.321224 5.827095 -84.795412 0.629964 2.644680 -26.791738 -0.000002 -0.000001 0.000007 2.431933 7.055167 -53.394078 4.432912 5.677187 -75.949859 0.393622 2.113010 -21.102583 0.000001 0.000000 0.000004 -1.623590 2.464331 -39.970100 4.432934 5.677174 -75.949853 0.393620 2.113002 -21.102570 0.000002 0.000002 -0.000001 4.661121 14.307610 -0.502777 -48.090576 27.765117 69.147326 -0.000076 112.272785 0.000103 2.506869 10.794997 0.169681 -11.269586 20.282831 1.210514 10.083131 -46.337714 -3.955815 -2.729949 -40.589731 -21.861270 -0.000001 -0.000001 -0.000000 -1.909772 -1.536820 39.260047 3.529763 -4.518939 75.975698 0.314031 -1.682771 21.139478 -0.000006 0.000001 -0.000001 1.887739 -5.985908 52.719823 3.529762 -4.518937 75.975712 0.314033 -1.682786 21.139471 0.000001 0.000005 -0.000009 5.826242 -8.180347 61.423106 4.235975 -4.638113 84.805309 0.502515 -2.106128 26.835953 0.000002 -0.000001 -0.000002 13.716892 -9.803632 73.678910 4.177132 -4.632416 84.077341 0.894955 -2.746961 36.085136 0.000003 -0.000002 0.000002 -51.923948 0.069693 26.227769 41.811621 -7.798539 -2.837928 3.414392 1.694147 -13.342340 -0.051035 0.000009 -0.000000 0.000000 0.000000 -0.000000 -5.132122 -12.622451 -26.121445 37.618104 -0.857503 0.646395 -19.522692 -10.475118 28.360139 -15.567955 0.000024 0.000000 -0.000000 0.000000 -0.000000 
-2.205671 76.899284 2.388399 8.005905 -33.508420 1.414240 4.096806 4.939463 3.407196 2.147931 1.986306 0.531376 2.109395 2.056434 0.472228 -1.717515 3.252976 -0.731946 4.393705 16.189963 -4.414526 0.000002 -0.000001 0.000000 8.680853 -10.956283 -3.542458 -48.101276 -8.959609 -45.663189 -0.000004 -105.014001 -0.000033 14.901405 1.816671 4.297304 -10.355878 -18.164519 -0.612242 10.166256 44.439178 3.473510 -4.021231 34.356309 21.444156 0.000002 -0.000000 0.000000 14.702271 10.907146 -74.390309 5.247203 5.819912 -84.066037 1.122275 3.449729 -36.032885 -0.000000 0.000004 -0.000007 6.551728 9.294146 -62.102785 5.321216 5.827097 -84.795412 0.629969 2.644677 -26.791736 0.000001 -0.000002 -0.000000 2.431934 7.055169 -53.394078 4.432916 5.677182 -75.949859 0.393628 2.113011 -21.102581 0.000000 -0.000001 0.000008 -1.623601 2.464326 -39.970096 4.432933 5.677176 -75.949853 0.393620 2.113001 -21.102576 -0.000003 0.000001 0.000002 4.610849 14.348095 0.008900 -46.865534 25.299034 67.129121 0.000035 113.110644 -0.000029 2.345673 11.164429 -0.192893 -11.269585 20.282834 1.210514 10.083136 -46.337707 -3.955818 -2.729950 -40.589728 -21.861274 -0.000001 -0.000002 -0.000004 -1.909769 -1.536823 39.260047 3.529760 -4.518939 75.975698 0.314026 -1.682771 21.139478 -0.000000 -0.000005 -0.000002 1.887738 -5.985915 52.719819 3.529763 -4.518935 75.975712 0.314030 -1.682783 21.139471 -0.000003 0.000001 -0.000006 5.826242 -8.180348 61.423106 4.235977 -4.638112 84.805302 0.502516 -2.106124 26.835946 -0.000005 0.000001 0.000000 13.716891 -9.803633 73.678917 4.177135 -4.632419 84.077334 0.894960 -2.746963 36.085136 -0.000001 -0.000000 0.000002 -52.917440 -0.342490 25.658936 43.213084 -8.525606 -2.345707 3.125606 1.655649 -13.063120 -0.193929 0.000005 0.000004 0.000000 -0.000002 -0.000000 -3.358434 -13.092025 -25.523328 37.625566 -1.290731 0.836089 -20.865448 -11.347965 28.353056 -14.847923 -0.000011 0.000002 -0.000000 0.000001 -0.000000 
-2.119389 76.071884 2.606720 7.604833 -32.363233 0.819385 4.247466 5.409522 3.051767 2.145315 2.269270 0.331216 2.103256 2.335462 0.260580 -1.808325 2.929560 -0.773608 3.922031 14.404053 -2.780723 -0.000000 0.000000 -0.000000 8.675073 -11.062141 -4.153740 -47.357076 -12.453156 -46.755804 0.000074 -105.979551 0.000072 14.604295 1.550850 4.398475 -10.355878 -18.164524 -0.612240 10.166249 44.439188 3.473520 -4.021229 34.356302 21.444156 0.000002 -0.000003 -0.000002 14.702274 10.907143 -74.390295 5.247200 5.819913 -84.066037 1.122272 3.449728 -36.032888 0.000002 -0.000000 -0.000004 6.551728 9.294147 -62.102785 5.321221 5.827094 -84.795412 0.629966 2.644681 -26.791736 -0.000003 0.000001 0.000005 2.431935 7.055168 -53.394075 4.432912 5.677181 -75.949853 0.393626 2.113010 -21.102578 -0.000000 -0.000001 0.000001 -1.623595 2.464331 -39.970093 4.432928 5.677179 -75.949846 0.393623 2.112995 -21.102571 -0.000002 -0.000002 -0.000001 4.574654 14.210618 0.482047 -45.735240 22.723280 65.326525 -0.000032 113.896649 0.000056 1.934796 11.568683 -0.741152 -11.269585 20.282834 1.210513 10.083130 -46.337711 -3.955817 -2.729951 -40.589731 -21.861272 -0.000002 0.000000 0.000003 -1.909773 -1.536817 39.260043 3.529762 -4.518936 75.975698 0.314029 -1.682771 21.139476 -0.000000 -0.000003 -0.000001 1.887736 -5.985916 52.719823 3.529761 -4.518939 75.975712 0.314027 -1.682784 21.139480 0.000000 -0.000001 -0.000002 5.826237 -8.180347 61.423099 4.235972 -4.638113 84.805309 0.502518 -2.106127 26.835952 -0.000001 0.000001 -0.000003 13.716890 -9.803630 73.678910 4.177131 -4.632415 84.077334 0.894958 -2.746959 36.085139 -0.000001 0.000002 -0.000003 -54.420656 -0.920729 24.979894 45.128098 -9.320396 -1.819184 2.804720 1.646665 -12.764904 -0.424783 0.000003 -0.000001 -0.000000 -0.000001 -0.000000 -1.687645 -13.578891 -24.968846 38.075559 -1.378177 1.074000 -22.762656 -12.646930 28.263053 -13.835368 -0.000000 -0.000009 -0.000000 0.000002 -0.000000 
